<?xml version="1.0" encoding="utf-8"?>
<!-- Generator: Adobe Illustrator 25.0.0, SVG Export Plug-In . SVG Version: 6.00 Build 0)  -->
<svg version="1.1" id="Layer_1" xmlns="http://www.w3.org/2000/svg" xmlns:xlink="http://www.w3.org/1999/xlink" x="0px" y="0px"
	 viewBox="0 0 72 72" style="enable-background:new 0 0 72 72;" xml:space="preserve">
<style type="text/css">
	.st0{fill:#E0DFDE;}
</style>
<g>
	<path class="st0" d="M47.8,41.1v16.8H14.1V24.2h16.8V14.1H14.1l0,0c-5.6,0-10.2,4.5-10.2,10.2l0,0V58l0,0c0,5.6,4.5,10.2,10.2,10.2
		l0,0h33.7l0,0C53.4,68.2,58,63.7,58,58l0,0V41.1H47.8z"/>
	<g>
		<rect x="41.1" y="3.9" class="st0" width="27" height="10.2"/>
		<rect x="57.9" y="3.9" class="st0" width="10.2" height="27"/>
		
			<rect x="18.4" y="21.5" transform="matrix(0.7071 -0.7071 0.7071 0.7071 -5.5118 39.8908)" class="st0" width="54" height="10.2"/>
	</g>
</g>
</svg>
