<?xml version="1.0" encoding="utf-8"?>
<!-- Generator: Adobe Illustrator 25.0.0, SVG Export Plug-In . SVG Version: 6.00 Build 0)  -->
<svg version="1.1" id="Layer_1" xmlns="http://www.w3.org/2000/svg" xmlns:xlink="http://www.w3.org/1999/xlink" x="0px" y="0px"
	 viewBox="0 0 452.8 124.5" style="enable-background:new 0 0 452.8 124.5;" xml:space="preserve">
<style type="text/css">
	.st0{fill:#E0DFDE;}
	.st1{fill:#CD0000;}
</style>
<g>
	<g>
		<path class="st0" d="M76.2,121.4c-17.2,0-31.4-5.5-42.5-16.4C22.6,94,17,80,17,62.9s5.6-31.2,16.8-42.3S59.1,3.9,76.2,3.9
			c17.3,0,31.6,5.6,42.7,16.7c11.2,11.1,16.8,25.2,16.8,42.3c0,17.2-5.6,31.2-16.8,42.1S93.5,121.4,76.2,121.4z M76.2,108.5
			c13.5,0,24.5-4.2,32.9-12.6s12.6-19.5,12.6-33.1c0-13.4-4.2-24.4-12.6-33s-19.5-13-32.9-13c-13.3,0-24.1,4.3-32.5,12.9
			s-12.6,19.6-12.6,33c0,13.5,4.2,24.5,12.6,33C52,104.2,62.9,108.5,76.2,108.5z"/>
		<path class="st0" d="M187.8,119.7h-13.6V5.6H223c11.1,0,20.3,3.2,27.5,9.7c7.2,6.5,10.8,15.2,10.8,26.2c0,8.1-2.3,15.2-7,21.2
			c-4.6,6-10.9,10.2-18.7,12.5l26.1,44.4H246l-25.1-42.5h-33.4v42.6H187.8z M187.8,17.8v47.3h33.7c7.6,0,13.8-2.2,18.7-6.5
			c4.9-4.4,7.3-10,7.3-17c0-7.5-2.5-13.3-7.4-17.5s-11.1-6.3-18.6-6.3H187.8z"/>
		<path class="st0" d="M345,119.7h-52.6V5.6H340c10.7,0,19.2,2.8,25.6,8.5s9.6,13.3,9.6,22.8c0,10.2-4.5,17.9-13.4,23
			c6.4,2.2,11.3,5.7,14.7,10.7c3.4,4.9,5.1,10.7,5.1,17.4c0,9.2-3.2,16.7-9.5,22.7C365.7,116.7,356.7,119.7,345,119.7z M306,17.7
			v38.2h33.4c6.5,0,11.8-1.7,15.9-5.2c4.1-3.4,6.1-8,6.1-13.8c0-6-2-10.7-5.9-14.1c-4-3.4-9.4-5.2-16.3-5.2L306,17.7L306,17.7z
			 M306,67.2v40.4h39.7c6.6,0,12-1.7,16-5.2c4-3.4,6-8.3,6-14.4c0-6.2-2-11.2-5.8-15c-3.9-3.8-9.3-5.8-16.3-5.8H306z"/>
		<path class="st0" d="M450.8,119.7h-13.4V23.5l-30.1,18.7V27.1l33.9-21.5h9.6V119.7z"/>
	</g>
	<g>
		<path class="st0" d="M7.5,97.1c-1.9,0-3.8-1.1-4.6-3c-1.1-2.5,0.1-5.5,2.6-6.6L142,28.2c2.5-1.1,5.5,0.1,6.6,2.6s-0.1,5.5-2.6,6.6
			L9.4,96.7C8.8,97,8.1,97.1,7.5,97.1z"/>
	</g>
	<g>
		<path class="st1" d="M159.9,23.6l-21.2-2.4c-1.8-0.2-3.2,1.7-2.5,3.4l8.5,19.5c0.7,1.7,3,2,4.2,0.5l12.7-17.1
			C162.7,25.9,161.7,23.8,159.9,23.6z"/>
	</g>
</g>
</svg>
